<?xml version="1.0" encoding="UTF-8" standalone="no"?>
<!DOCTYPE svg PUBLIC "-//W3C//DTD SVG 1.1//EN"
 "http://www.w3.org/Graphics/SVG/1.1/DTD/svg11.dtd">
<!-- Generated by graphviz version 14.1.5 (20260411.2331)
 -->
<!-- Title:   Pages: 1 -->
<svg width="2730pt" height="1628pt"
 viewBox="0.00 0.00 2730.00 1628.00" xmlns="http://www.w3.org/2000/svg" xmlns:xlink="http://www.w3.org/1999/xlink">
<g id="graph0" class="graph" transform="scale(1 1) rotate(0) translate(39.6 1588.6)">
<title> </title>
<polygon fill="white" stroke="none" points="-39.6,39.6 -39.6,-1588.6 2690.45,-1588.6 2690.45,39.6 -39.6,39.6"/>
<g id="clust1" class="cluster">
<title>cluster_Input files from preprocessingMinfiEwasWater()</title>
<path fill="#e5f5fd" stroke="#aeb6be" d="M12,-357C12,-357 421.75,-357 421.75,-357 427.75,-357 433.75,-363 433.75,-369 433.75,-369 433.75,-1198 433.75,-1198 433.75,-1204 427.75,-1210 421.75,-1210 421.75,-1210 12,-1210 12,-1210 6,-1210 0,-1204 0,-1198 0,-1198 0,-369 0,-369 0,-363 6,-357 12,-357"/>
<text xml:space="preserve" text-anchor="middle" x="216.88" y="-1187" font-family="Helvetica,sans-Serif" font-size="20.00" fill="#2d3436">Input files from preprocessingMinfiEwasWater()</text>
</g>
<g id="clust2" class="cluster">
<title>cluster_preprocessingPheno()</title>
<path fill="#e5f5fd" stroke="#aeb6be" d="M502.75,-8C502.75,-8 2065.95,-8 2065.95,-8 2071.95,-8 2077.95,-14 2077.95,-20 2077.95,-20 2077.95,-872 2077.95,-872 2077.95,-878 2071.95,-884 2065.95,-884 2065.95,-884 502.75,-884 502.75,-884 496.75,-884 490.75,-878 490.75,-872 490.75,-872 490.75,-20 490.75,-20 490.75,-14 496.75,-8 502.75,-8"/>
<text xml:space="preserve" text-anchor="middle" x="627.75" y="-857.2" font-family="Helvetica,sans-Serif" font-weight="bold" font-size="24.00" fill="#2d3436">preprocessingPheno()</text>
</g>
<g id="clust3" class="cluster">
<title>cluster_1. Read and Load Data</title>
<path fill="#ebf3e7" stroke="#aeb6be" d="M510.75,-16C510.75,-16 785.35,-16 785.35,-16 791.35,-16 797.35,-22 797.35,-28 797.35,-28 797.35,-829 797.35,-829 797.35,-835 791.35,-841 785.35,-841 785.35,-841 510.75,-841 510.75,-841 504.75,-841 498.75,-835 498.75,-829 498.75,-829 498.75,-28 498.75,-28 498.75,-22 504.75,-16 510.75,-16"/>
<text xml:space="preserve" text-anchor="middle" x="603.5" y="-819.9" font-family="Helvetica,sans-Serif" font-weight="bold" font-size="18.00" fill="#2d3436">1. Read and Load Data</text>
</g>
<g id="clust4" class="cluster">
<title>cluster_2. Align and Split by Timepoint</title>
<path fill="#ebf3e7" stroke="#aeb6be" d="M874.35,-552C874.35,-552 1330.75,-552 1330.75,-552 1336.75,-552 1342.75,-558 1342.75,-564 1342.75,-564 1342.75,-751 1342.75,-751 1342.75,-757 1336.75,-763 1330.75,-763 1330.75,-763 874.35,-763 874.35,-763 868.35,-763 862.35,-757 862.35,-751 862.35,-751 862.35,-564 862.35,-564 862.35,-558 868.35,-552 874.35,-552"/>
<text xml:space="preserve" text-anchor="middle" x="1003.1" y="-741.9" font-family="Helvetica,sans-Serif" font-weight="bold" font-size="18.00" fill="#2d3436">2. Align and Split by Timepoint</text>
</g>
<g id="clust5" class="cluster">
<title>cluster_3. Combine Longitudinal Data</title>
<path fill="#ebf3e7" stroke="#aeb6be" d="M1419.75,-496C1419.75,-496 1694.35,-496 1694.35,-496 1700.35,-496 1706.35,-502 1706.35,-508 1706.35,-508 1706.35,-695 1706.35,-695 1706.35,-701 1700.35,-707 1694.35,-707 1694.35,-707 1419.75,-707 1419.75,-707 1413.75,-707 1407.75,-701 1407.75,-695 1407.75,-695 1407.75,-508 1407.75,-508 1407.75,-502 1413.75,-496 1419.75,-496"/>
<text xml:space="preserve" text-anchor="middle" x="1544" y="-685.9" font-family="Helvetica,sans-Serif" font-weight="bold" font-size="18.00" fill="#2d3436">3. Combine Longitudinal Data</text>
</g>
<g id="clust6" class="cluster">
<title>cluster_4. Clock Foundation Preparation</title>
<path fill="#ebf3e7" stroke="#aeb6be" d="M1783.35,-630C1783.35,-630 2057.95,-630 2057.95,-630 2063.95,-630 2069.95,-636 2069.95,-642 2069.95,-642 2069.95,-829 2069.95,-829 2069.95,-835 2063.95,-841 2057.95,-841 2057.95,-841 1783.35,-841 1783.35,-841 1777.35,-841 1771.35,-835 1771.35,-829 1771.35,-829 1771.35,-642 1771.35,-642 1771.35,-636 1777.35,-630 1783.35,-630"/>
<text xml:space="preserve" text-anchor="middle" x="1918.85" y="-819.9" font-family="Helvetica,sans-Serif" font-weight="bold" font-size="18.00" fill="#2d3436">4. Clock Foundation Preparation</text>
</g>
<g id="clust7" class="cluster">
<title>cluster_Objects</title>
<path fill="#e5f5fd" stroke="#aeb6be" d="M2146.95,-1213C2146.95,-1213 2239.75,-1213 2239.75,-1213 2245.75,-1213 2251.75,-1219 2251.75,-1225 2251.75,-1225 2251.75,-1529 2251.75,-1529 2251.75,-1535 2245.75,-1541 2239.75,-1541 2239.75,-1541 2146.95,-1541 2146.95,-1541 2140.95,-1541 2134.95,-1535 2134.95,-1529 2134.95,-1529 2134.95,-1225 2134.95,-1225 2134.95,-1219 2140.95,-1213 2146.95,-1213"/>
<text xml:space="preserve" text-anchor="middle" x="2179.7" y="-1518" font-family="Helvetica,sans-Serif" font-weight="bold" font-size="20.00" fill="#2d3436">Objects</text>
</g>
<g id="clust8" class="cluster">
<title>cluster_Outputs</title>
<path fill="#e5f5fd" stroke="#aeb6be" d="M2146.95,-339C2146.95,-339 2239.75,-339 2239.75,-339 2245.75,-339 2251.75,-345 2251.75,-351 2251.75,-351 2251.75,-1180 2251.75,-1180 2251.75,-1186 2245.75,-1192 2239.75,-1192 2239.75,-1192 2146.95,-1192 2146.95,-1192 2140.95,-1192 2134.95,-1186 2134.95,-1180 2134.95,-1180 2134.95,-351 2134.95,-351 2134.95,-345 2140.95,-339 2146.95,-339"/>
<text xml:space="preserve" text-anchor="middle" x="2181.2" y="-1169" font-family="Helvetica,sans-Serif" font-weight="bold" font-size="20.00" fill="#2d3436">Outputs</text>
</g>
<g id="clust9" class="cluster">
<title>cluster_Files Saved</title>
<path fill="#e5f5fd" stroke="#aeb6be" d="M2146.95,-60C2146.95,-60 2630.85,-60 2630.85,-60 2636.85,-60 2642.85,-66 2642.85,-72 2642.85,-72 2642.85,-319 2642.85,-319 2642.85,-325 2636.85,-331 2630.85,-331 2630.85,-331 2146.95,-331 2146.95,-331 2140.95,-331 2134.95,-325 2134.95,-319 2134.95,-319 2134.95,-72 2134.95,-72 2134.95,-66 2140.95,-60 2146.95,-60"/>
<text xml:space="preserve" text-anchor="middle" x="2197.7" y="-308" font-family="Helvetica,sans-Serif" font-weight="bold" font-size="20.00" fill="#2d3436">Files Saved</text>
</g>
<!-- 96514d890a254b838b31f2e67b952d72 -->
<g id="node1" class="node">
<title>96514d890a254b838b31f2e67b952d72</title>
<image xlink:href="C:\Users\ruizpint\AppData\Local\miniconda3\Lib\site-packages\resources/onprem/network\nginx.png" width="100.8px" height="100.8px" preserveAspectRatio="xMinYMin meet" x="165.975" y="-512.4"/>
<text xml:space="preserve" text-anchor="middle" x="216.38" y="-398.75" font-family="Helvetica,sans-Serif" font-size="14.00" fill="#2d3436">Phenotype file</text>
<text xml:space="preserve" text-anchor="middle" x="216.38" y="-383" font-family="Helvetica,sans-Serif" font-size="14.00" fill="#2d3436">data/preprocessing...</text>
<text xml:space="preserve" text-anchor="middle" x="216.38" y="-367.25" font-family="Helvetica,sans-Serif" font-size="14.00" fill="#2d3436">phenoLC.csv</text>
</g>
<!-- 4578a450b10745d38a9381f88f106856 -->
<g id="node15" class="node">
<title>4578a450b10745d38a9381f88f106856</title>
<image xlink:href="C:\Users\ruizpint\AppData\Local\miniconda3\Lib\site-packages\resources/onprem/compute\server.png" width="100.8px" height="100.8px" preserveAspectRatio="xMinYMin meet" x="506.75" y="-157.4"/>
<text xml:space="preserve" text-anchor="middle" x="557.15" y="-42.4" font-family="Helvetica,sans-Serif" font-size="14.00" fill="#2d3436">Read</text>
<text xml:space="preserve" text-anchor="middle" x="557.15" y="-26.65" font-family="Helvetica,sans-Serif" font-size="14.00" fill="#2d3436">phenotype</text>
</g>
<!-- 96514d890a254b838b31f2e67b952d72&#45;&gt;4578a450b10745d38a9381f88f106856 -->
<g id="edge8" class="edge">
<title>96514d890a254b838b31f2e67b952d72&#45;&gt;4578a450b10745d38a9381f88f106856</title>
<path fill="none" stroke="darkgreen" stroke-width="2.4" d="M216.85,-364.99C216.85,-259.89 216.85,-107 216.85,-107 216.85,-107 493.31,-107 493.31,-107"/>
<polygon fill="darkgreen" stroke="darkgreen" stroke-width="2.4" points="493.31,-110.5 503.31,-107 493.31,-103.5 493.31,-110.5"/>
</g>
<!-- 844ec34c47b24233aaf428d4fde8529b -->
<g id="node2" class="node">
<title>844ec34c47b24233aaf428d4fde8529b</title>
<image xlink:href="C:\Users\ruizpint\AppData\Local\miniconda3\Lib\site-packages\resources/onprem/network\nginx.png" width="100.8px" height="100.8px" preserveAspectRatio="xMinYMin meet" x="165.975" y="-789.4"/>
<text xml:space="preserve" text-anchor="middle" x="216.38" y="-677.1" font-family="Helvetica,sans-Serif" font-size="14.00" fill="#2d3436">Metric files</text>
<text xml:space="preserve" text-anchor="middle" x="216.38" y="-661.35" font-family="Helvetica,sans-Serif" font-size="14.00" fill="#2d3436">beta.RData</text>
<text xml:space="preserve" text-anchor="middle" x="216.38" y="-645.6" font-family="Helvetica,sans-Serif" font-size="14.00" fill="#2d3436">m.RData</text>
<text xml:space="preserve" text-anchor="middle" x="216.38" y="-629.85" font-family="Helvetica,sans-Serif" font-size="14.00" fill="#2d3436">cn.RData</text>
</g>
<!-- a25968ef56364193b190916d9c6574b1 -->
<g id="node5" class="node">
<title>a25968ef56364193b190916d9c6574b1</title>
<image xlink:href="C:\Users\ruizpint\AppData\Local\miniconda3\Lib\site-packages\resources/onprem/compute\server.png" width="100.8px" height="100.8px" preserveAspectRatio="xMinYMin meet" x="688.55" y="-544.4"/>
<text xml:space="preserve" text-anchor="middle" x="738.95" y="-429.4" font-family="Helvetica,sans-Serif" font-size="14.00" fill="#2d3436">Load</text>
<text xml:space="preserve" text-anchor="middle" x="738.95" y="-413.65" font-family="Helvetica,sans-Serif" font-size="14.00" fill="#2d3436">matrices</text>
</g>
<!-- 844ec34c47b24233aaf428d4fde8529b&#45;&gt;a25968ef56364193b190916d9c6574b1 -->
<g id="edge9" class="edge">
<title>844ec34c47b24233aaf428d4fde8529b&#45;&gt;a25968ef56364193b190916d9c6574b1</title>
<path fill="none" stroke="darkgreen" stroke-width="2.4" d="M266.69,-647.5C394.54,-647.5 721.85,-647.5 721.85,-647.5 721.85,-647.5 721.85,-590.22 721.85,-590.22"/>
<polygon fill="darkgreen" stroke="darkgreen" stroke-width="2.4" points="725.35,-590.22 721.85,-580.22 718.35,-590.22 725.35,-590.22"/>
</g>
<!-- 153b50df1f2247e0823104003d1eded1 -->
<g id="node3" class="node">
<title>153b50df1f2247e0823104003d1eded1</title>
<image xlink:href="C:\Users\ruizpint\AppData\Local\miniconda3\Lib\site-packages\resources/onprem/network\nginx.png" width="100.8px" height="100.8px" preserveAspectRatio="xMinYMin meet" x="165.975" y="-1095.4"/>
<text xml:space="preserve" text-anchor="middle" x="216.38" y="-984.45" font-family="Helvetica,sans-Serif" font-size="14.00" fill="#2d3436">Settings</text>
<text xml:space="preserve" text-anchor="middle" x="216.38" y="-968.7" font-family="Helvetica,sans-Serif" font-size="14.00" fill="#2d3436">SampleID</text>
<text xml:space="preserve" text-anchor="middle" x="216.38" y="-952.95" font-family="Helvetica,sans-Serif" font-size="14.00" fill="#2d3436">Timepoint</text>
<text xml:space="preserve" text-anchor="middle" x="216.38" y="-937.2" font-family="Helvetica,sans-Serif" font-size="14.00" fill="#2d3436">Sex</text>
<text xml:space="preserve" text-anchor="middle" x="216.38" y="-921.45" font-family="Helvetica,sans-Serif" font-size="14.00" fill="#2d3436">Number of Timepoints</text>
</g>
<!-- 446652a9d4954212bbfb18a50d319648 -->
<g id="node8" class="node">
<title>446652a9d4954212bbfb18a50d319648</title>
<image xlink:href="C:\Users\ruizpint\AppData\Local\miniconda3\Lib\site-packages\resources/onprem/compute\server.png" width="100.8px" height="100.8px" preserveAspectRatio="xMinYMin meet" x="870.35" y="-693.4"/>
<text xml:space="preserve" text-anchor="middle" x="920.75" y="-578.4" font-family="Helvetica,sans-Serif" font-size="14.00" fill="#2d3436">Align</text>
<text xml:space="preserve" text-anchor="middle" x="920.75" y="-562.65" font-family="Helvetica,sans-Serif" font-size="14.00" fill="#2d3436">samples</text>
</g>
<!-- 153b50df1f2247e0823104003d1eded1&#45;&gt;446652a9d4954212bbfb18a50d319648 -->
<g id="edge10" class="edge">
<title>153b50df1f2247e0823104003d1eded1&#45;&gt;446652a9d4954212bbfb18a50d319648</title>
<path fill="none" stroke="darkgreen" stroke-width="2" stroke-dasharray="5,2" d="M266.76,-1036C427.99,-1036 920.85,-1036 920.85,-1036 920.85,-1036 920.85,-738.41 920.85,-738.41"/>
<polygon fill="darkgreen" stroke="darkgreen" stroke-width="2" points="924.35,-738.41 920.85,-728.41 917.35,-738.41 924.35,-738.41"/>
</g>
<!-- f6ea74b7208549ed855b4bbf1a1fb444 -->
<g id="node4" class="node">
<title>f6ea74b7208549ed855b4bbf1a1fb444</title>
<image xlink:href="C:\Users\ruizpint\AppData\Local\miniconda3\Lib\site-packages\resources/onprem/inmemory\redis.png" width="100.8px" height="100.8px" preserveAspectRatio="xMinYMin meet" x="506.75" y="-581.4"/>
<text xml:space="preserve" text-anchor="middle" x="557.15" y="-469.75" font-family="Helvetica,sans-Serif" font-style="oblique" font-size="13.00" fill="#2d3436">Beta matrix</text>
</g>
<!-- f6ea74b7208549ed855b4bbf1a1fb444&#45;&gt;a25968ef56364193b190916d9c6574b1 -->
<g id="edge1" class="edge">
<title>f6ea74b7208549ed855b4bbf1a1fb444&#45;&gt;a25968ef56364193b190916d9c6574b1</title>
<path fill="none" stroke="royalblue" stroke-width="1.8" stroke-dasharray="5,2" d="M607.31,-519.7C607.31,-519.7 675.92,-519.7 675.92,-519.7"/>
<polygon fill="royalblue" stroke="royalblue" stroke-width="1.8" points="675.92,-523.2 685.92,-519.7 675.92,-516.2 675.92,-523.2"/>
</g>
<!-- a25968ef56364193b190916d9c6574b1&#45;&gt;446652a9d4954212bbfb18a50d319648 -->
<g id="edge12" class="edge">
<title>a25968ef56364193b190916d9c6574b1&#45;&gt;446652a9d4954212bbfb18a50d319648</title>
<path fill="none" stroke="darkgreen" stroke-width="2.6" d="M789.11,-568.5C789.11,-568.5 856.5,-568.5 856.5,-568.5"/>
<polygon fill="darkgreen" stroke="darkgreen" stroke-width="2.6" points="856.5,-572 866.5,-568.5 856.5,-565 856.5,-572"/>
</g>
<!-- 32748a46bd7a41299e1a15e25c02f2fe -->
<g id="node21" class="node">
<title>32748a46bd7a41299e1a15e25c02f2fe</title>
<image xlink:href="C:\Users\ruizpint\AppData\Local\miniconda3\Lib\site-packages\resources/onprem/monitoring\prometheus.png" width="100.8px" height="100.8px" preserveAspectRatio="xMinYMin meet" x="2142.95" y="-242.4"/>
<text xml:space="preserve" text-anchor="middle" x="2193.35" y="-127.4" font-family="Helvetica,sans-Serif" font-size="14.00" fill="#2d3436">Log file</text>
<text xml:space="preserve" text-anchor="middle" x="2193.35" y="-111.65" font-family="Helvetica,sans-Serif" font-size="14.00" fill="#2d3436">log_preprocessingPheno.txt</text>
</g>
<!-- a25968ef56364193b190916d9c6574b1&#45;&gt;32748a46bd7a41299e1a15e25c02f2fe -->
<g id="edge20" class="edge">
<title>a25968ef56364193b190916d9c6574b1&#45;&gt;32748a46bd7a41299e1a15e25c02f2fe</title>
<path fill="none" stroke="firebrick" stroke-width="1.8" stroke-dasharray="5,2" d="M755.85,-411.21C755.85,-344.25 755.85,-261.04 755.85,-261.04 755.85,-261.04 2130.31,-261.04 2130.31,-261.04"/>
<polygon fill="firebrick" stroke="firebrick" stroke-width="1.8" points="2130.31,-264.54 2140.31,-261.04 2130.31,-257.54 2130.31,-264.54"/>
</g>
<!-- 3bcac0680a41463aa299e78e5f2ec3da -->
<g id="node6" class="node">
<title>3bcac0680a41463aa299e78e5f2ec3da</title>
<image xlink:href="C:\Users\ruizpint\AppData\Local\miniconda3\Lib\site-packages\resources/onprem/inmemory\redis.png" width="100.8px" height="100.8px" preserveAspectRatio="xMinYMin meet" x="506.75" y="-786.4"/>
<text xml:space="preserve" text-anchor="middle" x="557.15" y="-674.75" font-family="Helvetica,sans-Serif" font-style="oblique" font-size="13.00" fill="#2d3436">M&#45;value matrix</text>
</g>
<!-- 3bcac0680a41463aa299e78e5f2ec3da&#45;&gt;a25968ef56364193b190916d9c6574b1 -->
<g id="edge2" class="edge">
<title>3bcac0680a41463aa299e78e5f2ec3da&#45;&gt;a25968ef56364193b190916d9c6574b1</title>
<path fill="none" stroke="royalblue" stroke-width="1.8" stroke-dasharray="5,2" d="M607.55,-696.7C666.41,-696.7 755.85,-696.7 755.85,-696.7 755.85,-696.7 755.85,-589.46 755.85,-589.46"/>
<polygon fill="royalblue" stroke="royalblue" stroke-width="1.8" points="759.35,-589.46 755.85,-579.46 752.35,-589.46 759.35,-589.46"/>
</g>
<!-- d22cd4ab278743f599b3e3b21d11ac50 -->
<g id="node7" class="node">
<title>d22cd4ab278743f599b3e3b21d11ac50</title>
<image xlink:href="C:\Users\ruizpint\AppData\Local\miniconda3\Lib\site-packages\resources/onprem/inmemory\redis.png" width="100.8px" height="100.8px" preserveAspectRatio="xMinYMin meet" x="506.75" y="-376.4"/>
<text xml:space="preserve" text-anchor="middle" x="557.15" y="-264.75" font-family="Helvetica,sans-Serif" font-style="oblique" font-size="13.00" fill="#2d3436">CN matrix</text>
</g>
<!-- d22cd4ab278743f599b3e3b21d11ac50&#45;&gt;a25968ef56364193b190916d9c6574b1 -->
<g id="edge3" class="edge">
<title>d22cd4ab278743f599b3e3b21d11ac50&#45;&gt;a25968ef56364193b190916d9c6574b1</title>
<path fill="none" stroke="royalblue" stroke-width="1.8" stroke-dasharray="5,2" d="M607.46,-370.6C655.9,-370.6 721.85,-370.6 721.85,-370.6 721.85,-370.6 721.85,-398.62 721.85,-398.62"/>
<polygon fill="royalblue" stroke="royalblue" stroke-width="1.8" points="718.35,-398.62 721.85,-408.62 725.35,-398.62 718.35,-398.62"/>
</g>
<!-- b5fd21b318ac49548f76ad8fa7ad352b -->
<g id="node9" class="node">
<title>b5fd21b318ac49548f76ad8fa7ad352b</title>
<image xlink:href="C:\Users\ruizpint\AppData\Local\miniconda3\Lib\site-packages\resources/onprem/compute\server.png" width="100.8px" height="100.8px" preserveAspectRatio="xMinYMin meet" x="1052.15" y="-693.4"/>
<text xml:space="preserve" text-anchor="middle" x="1102.55" y="-578.4" font-family="Helvetica,sans-Serif" font-size="14.00" fill="#2d3436">Split</text>
<text xml:space="preserve" text-anchor="middle" x="1102.55" y="-562.65" font-family="Helvetica,sans-Serif" font-size="14.00" fill="#2d3436">T1 / T2</text>
</g>
<!-- 446652a9d4954212bbfb18a50d319648&#45;&gt;b5fd21b318ac49548f76ad8fa7ad352b -->
<g id="edge4" class="edge">
<title>446652a9d4954212bbfb18a50d319648&#45;&gt;b5fd21b318ac49548f76ad8fa7ad352b</title>
<path fill="none" stroke="darkgreen" stroke-width="2.6" d="M970.91,-643C970.91,-643 1038.3,-643 1038.3,-643"/>
<polygon fill="darkgreen" stroke="darkgreen" stroke-width="2.6" points="1038.3,-646.5 1048.3,-643 1038.3,-639.5 1038.3,-646.5"/>
</g>
<!-- 0984d754358d43e0aded7a787a879f8c -->
<g id="node10" class="node">
<title>0984d754358d43e0aded7a787a879f8c</title>
<image xlink:href="C:\Users\ruizpint\AppData\Local\miniconda3\Lib\site-packages\resources/onprem/compute\server.png" width="100.8px" height="100.8px" preserveAspectRatio="xMinYMin meet" x="1233.95" y="-693.4"/>
<text xml:space="preserve" text-anchor="middle" x="1284.35" y="-578.4" font-family="Helvetica,sans-Serif" font-size="14.00" fill="#2d3436">Build</text>
<text xml:space="preserve" text-anchor="middle" x="1284.35" y="-562.65" font-family="Helvetica,sans-Serif" font-size="14.00" fill="#2d3436">phenoBeta</text>
</g>
<!-- b5fd21b318ac49548f76ad8fa7ad352b&#45;&gt;0984d754358d43e0aded7a787a879f8c -->
<g id="edge5" class="edge">
<title>b5fd21b318ac49548f76ad8fa7ad352b&#45;&gt;0984d754358d43e0aded7a787a879f8c</title>
<path fill="none" stroke="darkgreen" stroke-width="2.6" d="M1152.71,-643C1152.71,-643 1220.1,-643 1220.1,-643"/>
<polygon fill="darkgreen" stroke="darkgreen" stroke-width="2.6" points="1220.1,-646.5 1230.1,-643 1220.1,-639.5 1220.1,-646.5"/>
</g>
<!-- fa61e87babf743b2ab0372baa03bbdb0 -->
<g id="node17" class="node">
<title>fa61e87babf743b2ab0372baa03bbdb0</title>
<image xlink:href="C:\Users\ruizpint\AppData\Local\miniconda3\Lib\site-packages\resources/onprem/database\postgresql.png" width="100.8px" height="100.8px" preserveAspectRatio="xMinYMin meet" x="2142.95" y="-1077.4"/>
<text xml:space="preserve" text-anchor="middle" x="2193.35" y="-966.45" font-family="Helvetica,sans-Serif" font-size="14.00" fill="#2d3436">Per&#45;timepoint data</text>
<text xml:space="preserve" text-anchor="middle" x="2193.35" y="-950.7" font-family="Helvetica,sans-Serif" font-size="14.00" fill="#2d3436">phenoT1 / phenoT2</text>
<text xml:space="preserve" text-anchor="middle" x="2193.35" y="-934.95" font-family="Helvetica,sans-Serif" font-size="14.00" fill="#2d3436">betaT1 / betaT2</text>
<text xml:space="preserve" text-anchor="middle" x="2193.35" y="-919.2" font-family="Helvetica,sans-Serif" font-size="14.00" fill="#2d3436">mT1 / mT2</text>
<text xml:space="preserve" text-anchor="middle" x="2193.35" y="-903.45" font-family="Helvetica,sans-Serif" font-size="14.00" fill="#2d3436">phenoBetaT1 / T2</text>
</g>
<!-- b5fd21b318ac49548f76ad8fa7ad352b&#45;&gt;fa61e87babf743b2ab0372baa03bbdb0 -->
<g id="edge16" class="edge">
<title>b5fd21b318ac49548f76ad8fa7ad352b&#45;&gt;fa61e87babf743b2ab0372baa03bbdb0</title>
<path fill="none" stroke="black" stroke-width="2" d="M1102.85,-725.65C1102.85,-804.07 1102.85,-910 1102.85,-910 1102.85,-910 2130.27,-910 2130.27,-910"/>
<polygon fill="black" stroke="black" stroke-width="2" points="2130.27,-913.5 2140.27,-910 2130.27,-906.5 2130.27,-913.5"/>
</g>
<!-- b5fd21b318ac49548f76ad8fa7ad352b&#45;&gt;32748a46bd7a41299e1a15e25c02f2fe -->
<g id="edge21" class="edge">
<title>b5fd21b318ac49548f76ad8fa7ad352b&#45;&gt;32748a46bd7a41299e1a15e25c02f2fe</title>
<path fill="none" stroke="firebrick" stroke-width="1.8" stroke-dasharray="5,2" d="M1102.85,-560.4C1102.85,-449.02 1102.85,-264.48 1102.85,-264.48 1102.85,-264.48 2130.58,-264.48 2130.58,-264.48"/>
<polygon fill="firebrick" stroke="firebrick" stroke-width="1.8" points="2130.58,-267.98 2140.58,-264.48 2130.58,-260.98 2130.58,-267.98"/>
</g>
<!-- 1ec25b2e57ef40a392387c2bc8cd2833 -->
<g id="node11" class="node">
<title>1ec25b2e57ef40a392387c2bc8cd2833</title>
<image xlink:href="C:\Users\ruizpint\AppData\Local\miniconda3\Lib\site-packages\resources/onprem/compute\server.png" width="100.8px" height="100.8px" preserveAspectRatio="xMinYMin meet" x="1415.75" y="-637.4"/>
<text xml:space="preserve" text-anchor="middle" x="1466.15" y="-522.4" font-family="Helvetica,sans-Serif" font-size="14.00" fill="#2d3436">Combine</text>
<text xml:space="preserve" text-anchor="middle" x="1466.15" y="-506.65" font-family="Helvetica,sans-Serif" font-size="14.00" fill="#2d3436">timepoints</text>
</g>
<!-- 0984d754358d43e0aded7a787a879f8c&#45;&gt;1ec25b2e57ef40a392387c2bc8cd2833 -->
<g id="edge13" class="edge">
<title>0984d754358d43e0aded7a787a879f8c&#45;&gt;1ec25b2e57ef40a392387c2bc8cd2833</title>
<path fill="none" stroke="darkgreen" stroke-width="2.6" d="M1334.51,-615C1334.51,-615 1401.9,-615 1401.9,-615"/>
<polygon fill="darkgreen" stroke="darkgreen" stroke-width="2.6" points="1401.9,-618.5 1411.9,-615 1401.9,-611.5 1401.9,-618.5"/>
</g>
<!-- 6228b5a561c54db2961065c96c5ed733 -->
<g id="node12" class="node">
<title>6228b5a561c54db2961065c96c5ed733</title>
<image xlink:href="C:\Users\ruizpint\AppData\Local\miniconda3\Lib\site-packages\resources/onprem/compute\server.png" width="100.8px" height="100.8px" preserveAspectRatio="xMinYMin meet" x="1597.55" y="-637.4"/>
<text xml:space="preserve" text-anchor="middle" x="1647.95" y="-522.4" font-family="Helvetica,sans-Serif" font-size="14.00" fill="#2d3436">Create</text>
<text xml:space="preserve" text-anchor="middle" x="1647.95" y="-506.65" font-family="Helvetica,sans-Serif" font-size="14.00" fill="#2d3436">phenoBetaT1T2</text>
</g>
<!-- 1ec25b2e57ef40a392387c2bc8cd2833&#45;&gt;6228b5a561c54db2961065c96c5ed733 -->
<g id="edge6" class="edge">
<title>1ec25b2e57ef40a392387c2bc8cd2833&#45;&gt;6228b5a561c54db2961065c96c5ed733</title>
<path fill="none" stroke="darkgreen" stroke-width="2.6" d="M1516.31,-587C1516.31,-587 1583.7,-587 1583.7,-587"/>
<polygon fill="darkgreen" stroke="darkgreen" stroke-width="2.6" points="1583.7,-590.5 1593.7,-587 1583.7,-583.5 1583.7,-590.5"/>
</g>
<!-- 1ec25b2e57ef40a392387c2bc8cd2833&#45;&gt;32748a46bd7a41299e1a15e25c02f2fe -->
<g id="edge22" class="edge">
<title>1ec25b2e57ef40a392387c2bc8cd2833&#45;&gt;32748a46bd7a41299e1a15e25c02f2fe</title>
<path fill="none" stroke="firebrick" stroke-width="1.8" stroke-dasharray="5,2" d="M1465.85,-504.41C1465.85,-409.87 1465.85,-267.92 1465.85,-267.92 1465.85,-267.92 2130.33,-267.92 2130.33,-267.92"/>
<polygon fill="firebrick" stroke="firebrick" stroke-width="1.8" points="2130.33,-271.42 2140.33,-267.92 2130.33,-264.42 2130.33,-271.42"/>
</g>
<!-- f06c5be0981d4ceb89a4e8095ae037cb -->
<g id="node13" class="node">
<title>f06c5be0981d4ceb89a4e8095ae037cb</title>
<image xlink:href="C:\Users\ruizpint\AppData\Local\miniconda3\Lib\site-packages\resources/onprem/compute\server.png" width="100.8px" height="100.8px" preserveAspectRatio="xMinYMin meet" x="1779.35" y="-771.4"/>
<text xml:space="preserve" text-anchor="middle" x="1829.75" y="-656.4" font-family="Helvetica,sans-Serif" font-size="14.00" fill="#2d3436">Prepare</text>
<text xml:space="preserve" text-anchor="middle" x="1829.75" y="-640.65" font-family="Helvetica,sans-Serif" font-size="14.00" fill="#2d3436">sex field</text>
</g>
<!-- 6228b5a561c54db2961065c96c5ed733&#45;&gt;f06c5be0981d4ceb89a4e8095ae037cb -->
<g id="edge14" class="edge">
<title>6228b5a561c54db2961065c96c5ed733&#45;&gt;f06c5be0981d4ceb89a4e8095ae037cb</title>
<path fill="none" stroke="darkgreen" stroke-width="2.6" d="M1698.11,-654C1698.11,-654 1765.5,-654 1765.5,-654"/>
<polygon fill="darkgreen" stroke="darkgreen" stroke-width="2.6" points="1765.5,-657.5 1775.5,-654 1765.5,-650.5 1765.5,-657.5"/>
</g>
<!-- 5e3fe641e61a492e8c092be047aa65dc -->
<g id="node18" class="node">
<title>5e3fe641e61a492e8c092be047aa65dc</title>
<image xlink:href="C:\Users\ruizpint\AppData\Local\miniconda3\Lib\site-packages\resources/onprem/database\postgresql.png" width="100.8px" height="100.8px" preserveAspectRatio="xMinYMin meet" x="2142.95" y="-494.4"/>
<text xml:space="preserve" text-anchor="middle" x="2193.35" y="-380.75" font-family="Helvetica,sans-Serif" font-size="14.00" fill="#2d3436">Longitudinal data</text>
<text xml:space="preserve" text-anchor="middle" x="2193.35" y="-365" font-family="Helvetica,sans-Serif" font-size="14.00" fill="#2d3436">phenoT1T2</text>
<text xml:space="preserve" text-anchor="middle" x="2193.35" y="-349.25" font-family="Helvetica,sans-Serif" font-size="14.00" fill="#2d3436">phenoBetaT1T2</text>
</g>
<!-- 6228b5a561c54db2961065c96c5ed733&#45;&gt;5e3fe641e61a492e8c092be047aa65dc -->
<g id="edge17" class="edge">
<title>6228b5a561c54db2961065c96c5ed733&#45;&gt;5e3fe641e61a492e8c092be047aa65dc</title>
<path fill="none" stroke="black" stroke-width="2" d="M1698.28,-522.7C1698.28,-522.7 2130.11,-522.7 2130.11,-522.7"/>
<polygon fill="black" stroke="black" stroke-width="2" points="2130.11,-526.2 2140.11,-522.7 2130.11,-519.2 2130.11,-526.2"/>
</g>
<!-- 6689c3edde9a407997a75e28feee4219 -->
<g id="node14" class="node">
<title>6689c3edde9a407997a75e28feee4219</title>
<image xlink:href="C:\Users\ruizpint\AppData\Local\miniconda3\Lib\site-packages\resources/onprem/compute\server.png" width="100.8px" height="100.8px" preserveAspectRatio="xMinYMin meet" x="1961.15" y="-771.4"/>
<text xml:space="preserve" text-anchor="middle" x="2011.55" y="-656.4" font-family="Helvetica,sans-Serif" font-size="14.00" fill="#2d3436">Build Clock</text>
<text xml:space="preserve" text-anchor="middle" x="2011.55" y="-640.65" font-family="Helvetica,sans-Serif" font-size="14.00" fill="#2d3436">Foundation tables</text>
</g>
<!-- f06c5be0981d4ceb89a4e8095ae037cb&#45;&gt;6689c3edde9a407997a75e28feee4219 -->
<g id="edge7" class="edge">
<title>f06c5be0981d4ceb89a4e8095ae037cb&#45;&gt;6689c3edde9a407997a75e28feee4219</title>
<path fill="none" stroke="darkgreen" stroke-width="2.6" d="M1879.91,-721C1879.91,-721 1947.3,-721 1947.3,-721"/>
<polygon fill="darkgreen" stroke="darkgreen" stroke-width="2.6" points="1947.3,-724.5 1957.3,-721 1947.3,-717.5 1947.3,-724.5"/>
</g>
<!-- ab8f975604d7483a9ad5e36443a46d55 -->
<g id="node16" class="node">
<title>ab8f975604d7483a9ad5e36443a46d55</title>
<image xlink:href="C:\Users\ruizpint\AppData\Local\miniconda3\Lib\site-packages\resources/onprem/analytics\spark.png" width="100.8px" height="100.8px" preserveAspectRatio="xMinYMin meet" x="2142.95" y="-1411.4"/>
<text xml:space="preserve" text-anchor="middle" x="2193.35" y="-1301.8" font-family="Helvetica,sans-Serif" font-size="14.00" fill="#2d3436">dnaEPICO_preprocessingPheno</text>
<text xml:space="preserve" text-anchor="middle" x="2193.35" y="-1286.05" font-family="Helvetica,sans-Serif" font-size="14.00" fill="#2d3436">pheno</text>
<text xml:space="preserve" text-anchor="middle" x="2193.35" y="-1270.3" font-family="Helvetica,sans-Serif" font-size="14.00" fill="#2d3436">metricsData</text>
<text xml:space="preserve" text-anchor="middle" x="2193.35" y="-1254.55" font-family="Helvetica,sans-Serif" font-size="14.00" fill="#2d3436">timepointData</text>
<text xml:space="preserve" text-anchor="middle" x="2193.35" y="-1238.8" font-family="Helvetica,sans-Serif" font-size="14.00" fill="#2d3436">combinedData</text>
<text xml:space="preserve" text-anchor="middle" x="2193.35" y="-1223.05" font-family="Helvetica,sans-Serif" font-size="14.00" fill="#2d3436">clockFoundation</text>
</g>
<!-- 6689c3edde9a407997a75e28feee4219&#45;&gt;ab8f975604d7483a9ad5e36443a46d55 -->
<g id="edge15" class="edge">
<title>6689c3edde9a407997a75e28feee4219&#45;&gt;ab8f975604d7483a9ad5e36443a46d55</title>
<path fill="none" stroke="black" stroke-width="2.4" d="M2011.85,-803.69C2011.85,-976.7 2011.85,-1361 2011.85,-1361 2011.85,-1361 2129.64,-1361 2129.64,-1361"/>
<polygon fill="black" stroke="black" stroke-width="2.4" points="2129.64,-1364.5 2139.64,-1361 2129.64,-1357.5 2129.64,-1364.5"/>
</g>
<!-- 9ef20c3e59da425bbbe57eb6208438fb -->
<g id="node19" class="node">
<title>9ef20c3e59da425bbbe57eb6208438fb</title>
<image xlink:href="C:\Users\ruizpint\AppData\Local\miniconda3\Lib\site-packages\resources/onprem/database\postgresql.png" width="100.8px" height="100.8px" preserveAspectRatio="xMinYMin meet" x="2142.95" y="-771.4"/>
<text xml:space="preserve" text-anchor="middle" x="2193.35" y="-659.1" font-family="Helvetica,sans-Serif" font-size="14.00" fill="#2d3436">Clock Foundation</text>
<text xml:space="preserve" text-anchor="middle" x="2193.35" y="-643.35" font-family="Helvetica,sans-Serif" font-size="14.00" fill="#2d3436">beta.csv</text>
<text xml:space="preserve" text-anchor="middle" x="2193.35" y="-627.6" font-family="Helvetica,sans-Serif" font-size="14.00" fill="#2d3436">beta.zip</text>
<text xml:space="preserve" text-anchor="middle" x="2193.35" y="-611.85" font-family="Helvetica,sans-Serif" font-size="14.00" fill="#2d3436">phenoCF.csv</text>
</g>
<!-- 6689c3edde9a407997a75e28feee4219&#45;&gt;9ef20c3e59da425bbbe57eb6208438fb -->
<g id="edge18" class="edge">
<title>6689c3edde9a407997a75e28feee4219&#45;&gt;9ef20c3e59da425bbbe57eb6208438fb</title>
<path fill="none" stroke="black" stroke-width="2" d="M2061.71,-721C2061.71,-721 2130.01,-721 2130.01,-721"/>
<polygon fill="black" stroke="black" stroke-width="2" points="2130.01,-724.5 2140.01,-721 2130.01,-717.5 2130.01,-724.5"/>
</g>
<!-- 6689c3edde9a407997a75e28feee4219&#45;&gt;32748a46bd7a41299e1a15e25c02f2fe -->
<g id="edge23" class="edge">
<title>6689c3edde9a407997a75e28feee4219&#45;&gt;32748a46bd7a41299e1a15e25c02f2fe</title>
<path fill="none" stroke="firebrick" stroke-width="1.8" stroke-dasharray="5,2" d="M2011.85,-638.27C2011.85,-508.4 2011.85,-271.36 2011.85,-271.36 2011.85,-271.36 2130.55,-271.36 2130.55,-271.36"/>
<polygon fill="firebrick" stroke="firebrick" stroke-width="1.8" points="2130.55,-274.86 2140.55,-271.36 2130.55,-267.86 2130.55,-274.86"/>
</g>
<!-- 4578a450b10745d38a9381f88f106856&#45;&gt;446652a9d4954212bbfb18a50d319648 -->
<g id="edge11" class="edge">
<title>4578a450b10745d38a9381f88f106856&#45;&gt;446652a9d4954212bbfb18a50d319648</title>
<path fill="none" stroke="darkgreen" stroke-width="2.6" d="M607.34,-162.93C707.11,-162.93 920.85,-162.93 920.85,-162.93 920.85,-162.93 920.85,-546.27 920.85,-546.27"/>
<polygon fill="darkgreen" stroke="darkgreen" stroke-width="2.6" points="917.35,-546.27 920.85,-556.27 924.35,-546.27 917.35,-546.27"/>
</g>
<!-- 4578a450b10745d38a9381f88f106856&#45;&gt;32748a46bd7a41299e1a15e25c02f2fe -->
<g id="edge19" class="edge">
<title>4578a450b10745d38a9381f88f106856&#45;&gt;32748a46bd7a41299e1a15e25c02f2fe</title>
<path fill="none" stroke="firebrick" stroke-width="1.8" stroke-dasharray="5,2" d="M607.46,-136.07C607.46,-136.07 2130.4,-136.07 2130.4,-136.07"/>
<polygon fill="firebrick" stroke="firebrick" stroke-width="1.8" points="2130.4,-139.57 2140.4,-136.07 2130.4,-132.57 2130.4,-139.57"/>
</g>
<!-- deaee98fb1e04369a58e6a6e95c1ca60 -->
<g id="node20" class="node">
<title>deaee98fb1e04369a58e6a6e95c1ca60</title>
<image xlink:href="C:\Users\ruizpint\AppData\Local\miniconda3\Lib\site-packages\resources/onprem/aggregator\fluentd.png" width="100.8px" height="83.0813px" preserveAspectRatio="xMinYMin meet" x="2324.75" y="-221.541"/>
<text xml:space="preserve" text-anchor="middle" x="2375.15" y="-118.1" font-family="Helvetica,sans-Serif" font-size="14.00" fill="#2d3436">Saved files</text>
<text xml:space="preserve" text-anchor="middle" x="2375.15" y="-102.35" font-family="Helvetica,sans-Serif" font-size="14.00" fill="#2d3436">phenoData</text>
<text xml:space="preserve" text-anchor="middle" x="2375.15" y="-86.6" font-family="Helvetica,sans-Serif" font-size="14.00" fill="#2d3436">RData</text>
<text xml:space="preserve" text-anchor="middle" x="2375.15" y="-70.85" font-family="Helvetica,sans-Serif" font-size="14.00" fill="#2d3436">ClockFoundationData</text>
</g>
<!-- fa61e87babf743b2ab0372baa03bbdb0&#45;&gt;deaee98fb1e04369a58e6a6e95c1ca60 -->
<g id="edge24" class="edge">
<title>fa61e87babf743b2ab0372baa03bbdb0&#45;&gt;deaee98fb1e04369a58e6a6e95c1ca60</title>
<path fill="none" stroke="brown" stroke-width="1.8" stroke-dasharray="1,5" d="M2243.7,-1027C2302.5,-1027 2391.85,-1027 2391.85,-1027 2391.85,-1027 2391.85,-303.89 2391.85,-303.89"/>
<polygon fill="brown" stroke="brown" stroke-width="1.8" points="2395.35,-303.89 2391.85,-293.89 2388.35,-303.89 2395.35,-303.89"/>
</g>
<!-- 5e3fe641e61a492e8c092be047aa65dc&#45;&gt;deaee98fb1e04369a58e6a6e95c1ca60 -->
<g id="edge25" class="edge">
<title>5e3fe641e61a492e8c092be047aa65dc&#45;&gt;deaee98fb1e04369a58e6a6e95c1ca60</title>
<path fill="none" stroke="brown" stroke-width="1.8" stroke-dasharray="1,5" d="M2192.85,-347.21C2192.85,-313.16 2192.85,-283.2 2192.85,-283.2 2192.85,-283.2 2312.13,-283.2 2312.13,-283.2"/>
<polygon fill="brown" stroke="brown" stroke-width="1.8" points="2312.13,-286.7 2322.13,-283.2 2312.13,-279.7 2312.13,-286.7"/>
</g>
<!-- 9ef20c3e59da425bbbe57eb6208438fb&#45;&gt;deaee98fb1e04369a58e6a6e95c1ca60 -->
<g id="edge26" class="edge">
<title>9ef20c3e59da425bbbe57eb6208438fb&#45;&gt;deaee98fb1e04369a58e6a6e95c1ca60</title>
<path fill="none" stroke="brown" stroke-width="1.8" stroke-dasharray="1,5" d="M2243.6,-721C2291.98,-721 2357.85,-721 2357.85,-721 2357.85,-721 2357.85,-304.16 2357.85,-304.16"/>
<polygon fill="brown" stroke="brown" stroke-width="1.8" points="2361.35,-304.16 2357.85,-294.16 2354.35,-304.16 2361.35,-304.16"/>
</g>
<!-- b147ad623d9a49fbb87d3776229970da -->
<g id="node22" class="node">
<title>b147ad623d9a49fbb87d3776229970da</title>
<image xlink:href="C:\Users\ruizpint\AppData\Local\miniconda3\Lib\site-packages\resources/onprem/queue\kafka.png" width="100.8px" height="100.8px" preserveAspectRatio="xMinYMin meet" x="2534.05" y="-230.4"/>
<text xml:space="preserve" text-anchor="middle" x="2584.45" y="-115.4" font-family="Helvetica,sans-Serif" font-size="14.00" fill="#2d3436">Optional export</text>
<text xml:space="preserve" text-anchor="middle" x="2584.45" y="-99.65" font-family="Helvetica,sans-Serif" font-size="14.00" fill="#2d3436">saveOutputs = TRUE</text>
</g>
<!-- deaee98fb1e04369a58e6a6e95c1ca60&#45;&gt;b147ad623d9a49fbb87d3776229970da -->
<g id="edge28" class="edge">
<title>deaee98fb1e04369a58e6a6e95c1ca60&#45;&gt;b147ad623d9a49fbb87d3776229970da</title>
<path fill="none" stroke="brown" stroke-width="2" stroke-dasharray="1,5" d="M2425.55,-180C2425.55,-180 2521.1,-180 2521.1,-180"/>
<polygon fill="brown" stroke="brown" stroke-width="2" points="2521.1,-183.5 2531.1,-180 2521.1,-176.5 2521.1,-183.5"/>
<text xml:space="preserve" text-anchor="middle" x="2479.8" y="-184.15" font-family="Sans-Serif" font-size="13.00" fill="#2d3436">write</text>
</g>
<!-- 32748a46bd7a41299e1a15e25c02f2fe&#45;&gt;deaee98fb1e04369a58e6a6e95c1ca60 -->
<g id="edge27" class="edge">
<title>32748a46bd7a41299e1a15e25c02f2fe&#45;&gt;deaee98fb1e04369a58e6a6e95c1ca60</title>
<path fill="none" stroke="brown" stroke-width="1.8" stroke-dasharray="1,5" d="M2243.51,-192C2243.51,-192 2312.12,-192 2312.12,-192"/>
<polygon fill="brown" stroke="brown" stroke-width="1.8" points="2312.12,-195.5 2322.12,-192 2312.12,-188.5 2312.12,-195.5"/>
</g>
</g>
</svg>
